<svg xmlns="http://www.w3.org/2000/svg" width="71" height="65" viewBox="0 0 71 65" fill="none"><g id="Group"><path id="Vector" d="M8.8712 1.33969C8.34728 1.68925 7.91703 2.16473 7.61889 2.72367C7.32074 3.2826 7.16398 3.90759 7.16261 4.54281V51.9491C7.16165 52.2025 7.23595 52.4504 7.37587 52.6606C7.51579 52.8708 7.71488 53.0336 7.94729 53.1278L34.2343 64.1978V10.5134L12.4782 1.01938C11.8979 0.765969 11.2644 0.662572 10.6348 0.718484C10.0051 0.774396 9.39912 0.987863 8.8712 1.33969Z" fill="#0E0F20"></path><path id="Vector_2" d="M5.54266 54.4347C4.95181 53.7451 4.62804 52.8619 4.63141 51.9491C4.63141 51.9491 4.58964 3.86888 4.78328 3.14625C4.22376 3.00947 3.64095 3.00235 3.07833 3.12541C2.51571 3.24847 1.98779 3.49855 1.53396 3.85698C1.08013 4.21541 0.712098 4.67295 0.457314 5.19547C0.20253 5.71799 0.0675709 6.292 0.0625035 6.87469V52.6922C0.0613519 53.5492 0.343611 54.3819 0.864292 55.0576C1.38497 55.7334 2.1141 56.2132 2.93547 56.4206L18.5659 60.3797L6.97282 55.4981C6.41909 55.2643 5.92871 54.8996 5.54266 54.4347ZM63.8373 51.9491V4.54281C63.8287 3.90782 63.6662 3.28468 63.3641 2.72812C63.062 2.17155 62.6295 1.69857 62.1047 1.35069C61.5799 1.00281 60.9787 0.790681 60.354 0.732914C59.7293 0.675147 59.1001 0.773513 58.5217 1.01938L36.7656 10.5134V64.1978L63.0527 53.1278C63.2851 53.0336 63.4842 52.8708 63.6241 52.6606C63.764 52.4504 63.8383 52.2025 63.8373 51.9491Z" fill="#0E0F20"></path><path id="Vector_3" d="M69.5327 3.88938C69.074 3.51509 68.536 3.25326 67.9607 3.12435C67.3855 2.99543 66.7886 3.00293 66.2167 3.14625C66.318 3.59469 66.3686 51.9491 66.3686 51.9491C66.3671 52.7083 66.144 53.4502 65.7275 54.0816C65.3109 54.713 64.7194 55.2058 64.0272 55.4981L52.4341 60.3797L68.0645 56.4206C68.8859 56.2132 69.6151 55.7333 70.1357 55.0576C70.6564 54.3819 70.9387 53.5492 70.9375 52.6922V6.87469C70.9377 6.30258 70.8117 5.73765 70.5687 5.22116C70.3256 4.70467 69.9717 4.24966 69.5327 3.88938Z" fill="#0E0F20"></path></g></svg>