<svg xmlns="http://www.w3.org/2000/svg" xmlns:xlink="http://www.w3.org/1999/xlink" xmlns:svgjs="http://svgjs.com/svgjs" width="512" height="512" x="0" y="0" viewBox="0 0 64 64" style="enable-background:new 0 0 512 512" xml:space="preserve"><g><path d="M10.96 8.07a3.002 3.002 0 0 0-1.35 2.5v37a.987.987 0 0 0 .62.92L31 57.13v-41.9L13.81 7.82a3.013 3.013 0 0 0-2.85.25z" fill="#000000" data-original="#000000"></path><path d="M8.33 49.51a2.944 2.944 0 0 1-.72-1.94s-.033-37.526.12-38.09A3.021 3.021 0 0 0 4 12.39v35.76a2.995 2.995 0 0 0 2.27 2.91l12.35 3.09-9.16-3.81a2.97 2.97 0 0 1-1.13-.83zM54.39 47.57v-37a3.028 3.028 0 0 0-4.2-2.75L33 15.23v41.9l20.77-8.64a.987.987 0 0 0 .62-.92z" fill="#000000" data-original="#000000"></path><path d="M58.89 10.06a3.019 3.019 0 0 0-2.62-.58c.08.35.12 38.09.12 38.09a3.008 3.008 0 0 1-1.85 2.77l-9.16 3.81 12.35-3.09A2.995 2.995 0 0 0 60 48.15V12.39a2.998 2.998 0 0 0-1.11-2.33z" fill="#000000" data-original="#000000"></path></g></svg>