<svg xmlns="http://www.w3.org/2000/svg" width="81" height="86" viewBox="0 0 81 86" fill="none"><path d="M70.2837 67.5797C68.5315 62.4248 61.548 59.1981 56.569 57.0352C54.6185 56.1907 49.2184 54.7579 48.5693 52.3301C48.3371 51.4555 48.3684 50.6308 48.5589 49.8404C48.256 49.8993 47.948 49.9295 47.6393 49.9307H44.3951C43.1503 49.9294 41.9569 49.4399 41.0768 48.5697C40.1967 47.6996 39.7017 46.5198 39.7006 45.2893C39.7006 42.7325 41.806 40.6539 44.3951 40.6539H47.6393C48.7112 40.6539 49.7273 41.0125 50.5469 41.6524C51.713 41.5004 52.864 41.2512 53.9877 40.9076C55.4067 37.969 56.5133 34.455 56.7613 31.4304C57.8201 18.4891 49.7943 10.9177 38.2868 12.2266C29.92 13.1786 24.9219 19.3457 24.3816 27.2852C23.8352 35.3778 26.8707 41.3548 30.0949 45.7391C31.5069 47.656 32.9903 48.8884 32.7623 51.1984C32.4978 53.9297 29.5433 54.6908 27.4301 55.5302C24.9262 56.5244 22.2292 58.0328 20.9555 58.7303C16.5681 61.1254 11.7527 64.0098 10.6704 67.9555C8.27356 76.7 16.368 79.3488 23.0505 80.5717C28.7855 81.6174 35.2523 81.7 40.5714 81.7C50.1928 81.7 67.4936 81.319 70.2837 74.1698C71.0771 72.1411 70.7369 68.9084 70.2837 67.5797Z" fill="#0E0F20"></path><path d="M49.6926 43.983C49.4705 43.6449 49.1665 43.367 48.8083 43.1743C48.4501 42.9816 48.049 42.8804 47.6412 42.8796H44.3969C44.0705 42.871 43.7457 42.9271 43.4415 43.0446C43.1374 43.1622 42.8602 43.3387 42.6263 43.5639C42.3923 43.7891 42.2064 44.0583 42.0794 44.3557C41.9524 44.6531 41.887 44.9726 41.887 45.2953C41.887 45.6181 41.9524 45.9376 42.0794 46.235C42.2064 46.5324 42.3923 46.8016 42.6263 47.0268C42.8602 47.2519 43.1374 47.4285 43.4415 47.546C43.7457 47.6636 44.0705 47.7197 44.3969 47.7111H47.6412C48.0875 47.7107 48.525 47.5886 48.9056 47.3581C49.2861 47.1276 49.5949 46.7977 49.7979 46.4047C54.321 46.053 58.2552 44.6873 61.0165 42.6706C61.6508 43.0748 62.4007 43.3113 63.2098 43.3113H63.4134C63.9494 43.3114 64.4802 43.2071 64.9753 43.0042C65.4705 42.8014 65.9203 42.5041 66.2992 42.1292C66.678 41.7543 66.9783 41.3093 67.183 40.8197C67.3876 40.33 67.4926 39.8052 67.4919 39.2753V31.2189C67.4921 30.4579 67.2738 29.7126 66.8622 29.0695C66.4507 28.4264 65.8629 27.9121 65.1673 27.5862C64.5687 14.6492 53.7346 4.3 40.5002 4.3C27.2658 4.3 16.4299 14.6492 15.834 27.5862C15.1378 27.9116 14.5495 28.4258 14.1376 29.0689C13.7257 29.7121 13.5072 30.4577 13.5076 31.2189V39.2753C13.5069 39.8049 13.6118 40.3294 13.8162 40.8189C14.0207 41.3083 14.3207 41.7532 14.6991 42.128C15.0776 42.5028 15.527 42.8002 16.0218 43.0033C16.5165 43.2063 17.0469 43.311 17.5827 43.3113H17.7888C18.3247 43.3112 18.8554 43.2067 19.3504 43.0038C19.8454 42.8008 20.2951 42.5035 20.6738 42.1286C21.0525 41.7538 21.3527 41.3089 21.5574 40.8193C21.7621 40.3297 21.8671 39.8051 21.8665 39.2753V31.2189C21.8661 30.4686 21.6534 29.7333 21.2525 29.0962C20.8515 28.4592 20.2783 27.9457 19.5976 27.6137C20.1796 16.7132 29.3303 8.02466 40.5002 8.02466C51.6658 8.02466 60.8208 16.7132 61.4002 27.6137C60.7202 27.9463 60.1476 28.46 59.7472 29.097C59.3467 29.734 59.1343 30.4689 59.1339 31.2189V39.2753C59.1339 39.8103 59.2391 40.3082 59.4244 40.7735C57.0476 42.4548 53.5876 43.6527 49.6926 43.983Z" fill="#0E0F20"></path></svg>